<?xml version="1.0" encoding="UTF-8" standalone="no"?>
<svg xmlns="http://www.w3.org/2000/svg" version="1.1" viewBox="0 0 256 256" width="256" height="256">
<path fill="#72a7cf" d="m188.11 22.279c-1.6426-0.02805-3.3004 0.06452-4.9473 0.11523-13.339 0.41078-26.496 10.919-27.498 24.738-3.3686 14.214-5.7597 29.144-13.043 41.984-24.486 24.514-50.783 47.173-76.021 70.914-10.227 9.7795-21.086 18.986-30.469 29.594-7.8902 11.397 0.24594 30.958 14.781 30.873 11.452-0.37528 18.115-11.516 25.547-18.619 27.68-30.12 53.08-62.32 81.54-91.73 7.5175-6.1971 17.946-6.7854 27.064-9.2832 6.1279-1.5247 12.612-2.0249 18.523-4.1719 10.604-6.7347 18.146-18.826 19.287-31.344 0.37688-2.9803-2.957-2.0469-2.957-2.0469l-18.369 8.4648-14.033-11.586-2.3555-13.068s4.2679-4.2277 6.1777-4.5938l18.029-6.7266c-0.71674-7.4553-10.137-11.204-16.398-12.902-1.5892-0.43112-3.2168-0.57937-4.8594-0.60742zm-13.697 50.545 8.209 19.402-7.4297 2.9941-0.16016-0.37305 2.0312-0.8457-0.38867-0.92969 0.42578-0.0957 0.97656-0.21875-0.4375-1.9512-0.97461 0.2168-0.77148 0.17187-0.97266-2.3281 0.41602-0.09375 0.97656-0.21875-0.43555-1.9512-0.97656 0.2168-0.76367 0.16992-0.97266-2.3301 0.41016-0.0918 0.97656-0.2168-0.4375-1.9531-0.97461 0.21875-0.75586 0.16992-0.97265-2.332 0.40039-0.08984 0.97656-0.2168-0.43555-1.9531-0.97656 0.21875-0.74805 0.16797-1.3555-3.25c-1.4386 0.57977-1.5181 0.62724-2.2188 0.91797l-0.16796-0.39258c2.5091-1.0111 5.0184-2.0221 7.5273-3.0332zm-13.094 5.2754 0.19141 0.44531c-0.6768 0.27954-0.69489 0.30074-1.9746 0.81641l0.65234 1.5527-0.33789 0.07617-0.97656 0.21875 0.4375 1.9512 0.97461-0.21875 0.68945-0.1543 0.98047 2.3301-0.3418 0.07617-0.97656 0.21875 0.43555 1.9512 0.97656-0.21875 0.69336-0.1543 0.97851 2.3281-0.3457 0.07813-0.97656 0.21875 0.4375 1.9512 0.97461-0.2168 0.69922-0.15625 0.97851 2.3281-0.34961 0.07813-0.97656 0.21875 0.43555 1.9512 0.97656-0.2168 0.70312-0.15625 1.1074 2.6348 2.1074-0.87695 0.13281 0.30859-6.9629 2.8047-8.2051-19.402c2.2872-0.92165 4.5741-1.844 6.8613-2.7656zm-107.8 110.13a11.534 11.534 0 0 1 11.533 11.535 11.534 11.534 0 0 1 -11.533 11.533 11.534 11.534 0 0 1 -11.533 -11.533 11.534 11.534 0 0 1 11.533 -11.535z"/>
</svg>
